<svg width="131" height="121" viewBox="0 0 131 121" fill="none" xmlns="http://www.w3.org/2000/svg">
<path fill-rule="evenodd" clip-rule="evenodd" d="M60.4354 110.76L9.81295 60.1378L60.4354 9.51534L92.5428 41.6228L98.1996 35.9659L63.9709 1.73717C62.0183 -0.215452 58.8524 -0.21545 56.8998 1.73718L2.03478 56.6022C0.0821556 58.5548 0.0821587 61.7207 2.03478 63.6733L56.8998 118.538C58.8524 120.491 62.0183 120.491 63.9709 118.538L94.5297 87.9795L88.8729 82.3227L60.4354 110.76Z" fill="black"/>
<path d="M61.3698 83.5483C73.7737 83.5483 83.8291 73.493 83.8291 61.0891C83.8291 48.6852 73.7737 38.6299 61.3698 38.6299C48.966 38.6299 38.9106 48.6852 38.9106 61.0891C38.9106 73.493 48.966 83.5483 61.3698 83.5483Z" fill="#8A4BFF"/>
<path d="M60.9529 46.2068C61.6869 45.8384 62.5834 46.6931 62.193 47.3986C61.9664 47.9736 61.1073 48.1269 60.6684 47.6885C60.2039 47.2674 60.3558 46.4356 60.9529 46.2068ZM53.0556 47.0255C53.5014 46.8488 54.066 47.2417 54.0206 47.7094C54.0679 48.2173 53.4229 48.591 52.9678 48.3497C52.3658 48.1257 52.4349 47.1848 53.0556 47.0255ZM69.2305 48.364C68.5333 48.2832 68.4231 47.2285 69.0942 47.0165C69.6147 46.7721 70.0922 47.2303 70.1681 47.7046C70.0592 48.1101 69.7068 48.4814 69.2305 48.364ZM54.8524 50.259C55.5982 49.805 56.6622 50.4812 56.5476 51.3143C56.509 52.1557 55.3473 52.6432 54.6917 52.0743C54.058 51.6275 54.1538 50.6028 54.8524 50.259ZM66.236 50.7405C66.5684 49.9158 67.9169 49.8907 68.2954 50.6938C68.6696 51.3185 68.2095 52.0923 67.5428 52.3049C66.6593 52.4636 65.8201 51.5448 66.236 50.7405ZM60.0022 52.2582C59.9948 51.549 60.6665 51.0208 61.3669 50.9729C61.8313 51.0627 62.3381 51.2532 62.5373 51.7042C62.909 52.3264 62.579 53.1829 61.9079 53.4685C61.601 53.6338 61.238 53.5722 60.9037 53.5524C60.392 53.3104 59.9618 52.8373 60.0022 52.2582ZM48.2575 53.2913C48.9386 52.8882 49.8575 53.6237 49.5998 54.3358C49.4578 54.9514 48.5974 55.2018 48.1056 54.8089C47.5801 54.44 47.6636 53.5548 48.2575 53.2913ZM73.4777 53.2901C74.0554 52.8583 75.0092 53.3536 74.9407 54.0555C74.9793 54.6957 74.155 55.1784 73.581 54.8484C72.9491 54.5753 72.8844 53.6398 73.4777 53.2901ZM63.3049 54.5646C64.2587 54.2352 65.3912 54.6292 65.9353 55.4473C66.6525 56.4475 66.2709 57.97 65.1583 58.5437C64.0053 59.2223 62.3219 58.6473 61.8961 57.4082C61.4117 56.2996 62.1158 54.9119 63.3049 54.5646ZM57.7093 54.6736C58.7664 54.1938 60.189 54.5963 60.6995 55.6366C61.3003 56.6488 60.8358 58.0586 59.7619 58.5814C58.6861 59.169 57.1689 58.7234 56.6485 57.6364C56.0645 56.5853 56.5825 55.1575 57.7093 54.6736ZM52.1062 56.5158C52.1865 55.8606 52.829 55.4342 53.4771 55.3904C54.1756 55.4713 54.7334 55.9929 54.8094 56.6733C54.7633 57.3465 54.2229 58.0041 53.4815 58.0005C52.6653 58.0676 51.9506 57.2872 52.1062 56.5158ZM68.6553 55.533C69.4926 55.064 70.6556 55.7468 70.6182 56.6721C70.6755 57.6525 69.3887 58.3437 68.5544 57.7687C67.6884 57.2896 67.7563 55.9408 68.6553 55.533ZM55.432 58.9893C56.4113 58.73 57.5313 59.1744 58.0119 60.0404C58.5379 60.9124 58.3232 62.1234 57.5057 62.7624C56.4573 63.7003 54.5243 63.3236 53.9664 62.0437C53.3252 60.8705 54.104 59.2983 55.432 58.9893ZM66.0455 58.9845C66.9974 58.7222 68.1161 59.0755 68.6285 59.9098C69.3052 60.8645 68.9821 62.2881 67.9748 62.9032C66.9196 63.6177 65.2847 63.2428 64.7039 62.1252C63.9991 60.9699 64.7076 59.3367 66.0455 58.9845ZM49.1322 60.0733C49.9783 59.7655 50.9165 60.6638 50.5734 61.4706C50.3643 62.206 49.2872 62.4773 48.7306 61.9353C48.0794 61.4269 48.3204 60.2943 49.1322 60.0733ZM72.0657 61.2442C72.0414 60.5698 72.5544 59.9727 73.2729 59.935C73.8525 60.023 74.4159 60.4728 74.3698 61.0801C74.4227 61.8814 73.4192 62.4264 72.7094 62.0497C72.3764 61.8874 72.2058 61.5592 72.0657 61.2442ZM44.9716 60.4692C45.4808 60.2554 46.1103 60.68 45.9938 61.2238C45.9665 61.8395 45.0214 62.0761 44.6746 61.5616C44.3683 61.2047 44.5514 60.6537 44.9716 60.4692ZM77.0674 60.4572C77.426 60.2117 78.0006 60.3883 78.1432 60.7908C78.3841 61.231 77.9421 61.8335 77.4279 61.7593C76.7051 61.8227 76.471 60.7633 77.0674 60.4572ZM58.1968 63.4128C59.5365 63.0774 60.9759 64.1525 60.9846 65.4791C61.0718 66.82 59.6542 68.0089 58.2827 67.6992C57.2231 67.5351 56.3913 66.5529 56.4256 65.5228C56.4225 64.537 57.1957 63.6213 58.1968 63.4128ZM63.5017 63.4098C64.8614 63.0445 66.3437 64.1381 66.3225 65.4952C66.3941 66.8111 65.0207 67.9604 63.6779 67.6992C62.4147 67.5423 61.4821 66.2068 61.8351 65.0275C62.0131 64.2417 62.6955 63.6027 63.5017 63.4098ZM53.2735 64.2268C54.2142 64.0722 55.0964 65.082 54.7148 65.9414C54.4365 66.8572 53.0513 67.1057 52.4387 66.3577C51.7202 65.639 52.2569 64.3262 53.2735 64.2268ZM68.8302 64.2669C69.6688 63.9291 70.6986 64.6268 70.6344 65.503C70.668 66.4673 69.3968 67.1321 68.5768 66.5691C67.6474 66.0642 67.8167 64.5771 68.8302 64.2669ZM73.1782 68.4628C72.8495 67.8741 73.4466 67.0931 74.1264 67.2021C74.4651 67.1968 74.7017 67.4531 74.9183 67.6681C74.9625 68.0173 75.0372 68.4335 74.7365 68.7024C74.3269 69.2007 73.4005 69.0588 73.1782 68.4628ZM48.2544 67.3662C48.89 66.9596 49.804 67.5663 49.6614 68.2808C49.5854 68.9126 48.758 69.2738 48.2127 68.9156C47.6275 68.5898 47.6492 67.6627 48.2544 67.3662ZM60.8066 68.6886C61.6383 68.3353 62.6979 69.0324 62.6195 69.9134C62.6811 70.8872 61.3706 71.5616 60.5569 70.9771C59.6536 70.4752 59.8043 68.9977 60.8066 68.6886ZM54.9931 69.9937C55.7015 69.6349 56.6522 70.2542 56.5874 71.0172C56.6092 71.6437 55.9736 72.1773 55.3311 72.0845C54.7988 72.0737 54.452 71.6143 54.2815 71.1783C54.2902 70.7028 54.4938 70.1727 54.9931 69.9937ZM66.7695 70.0044C67.4979 69.5714 68.5333 70.1931 68.4648 71.0088C68.4835 71.8611 67.313 72.4073 66.6351 71.8473C65.9782 71.4089 66.0579 70.3536 66.7695 70.0044ZM68.8172 74.8754C68.4928 74.4034 68.8744 73.8357 69.4011 73.7279C69.8245 73.8105 70.2715 74.1166 70.1824 74.5885C70.1208 75.2269 69.1502 75.4228 68.8172 74.8754ZM52.5607 74.4657C52.6896 74.092 53.0021 73.7201 53.4597 73.8177C54.1264 73.8632 54.3244 74.8299 53.7411 75.1281C53.2162 75.4683 52.6074 75.0023 52.5607 74.4657ZM60.4038 74.8945C60.5314 74.3417 61.2754 74.0722 61.766 74.3663C62.0903 74.4999 62.1849 74.849 62.2677 75.1455C62.2235 75.3 62.1837 75.4545 62.1445 75.609C61.9434 75.8378 61.6856 76.0672 61.3513 76.0588C60.7306 76.1283 60.1703 75.4533 60.4038 74.8945Z" fill="#EFEAFF" fill-opacity="0.2"/>
<path d="M99.5527 67.8222C103.274 67.8222 106.29 64.8056 106.29 61.0844C106.29 57.3633 103.274 54.3467 99.5527 54.3467C95.8315 54.3467 92.8149 57.3633 92.8149 61.0844C92.8149 64.8056 95.8315 67.8222 99.5527 67.8222Z" fill="#8A4BFF"/>
<path d="M99.4376 56.6184C99.6578 56.5079 99.9267 56.7643 99.8096 56.9759C99.7416 57.1484 99.4839 57.1944 99.3522 57.0629C99.2129 56.9366 99.2585 56.687 99.4376 56.6184ZM97.0684 56.864C97.2021 56.811 97.3715 56.9289 97.3579 57.0692C97.3721 57.2215 97.1786 57.3337 97.0421 57.2612C96.8615 57.194 96.8822 56.9118 97.0684 56.864ZM101.921 57.2656C101.712 57.2413 101.679 56.9249 101.88 56.8613C102.036 56.788 102.179 56.9254 102.202 57.0677C102.169 57.1894 102.064 57.3008 101.921 57.2656ZM97.6074 57.834C97.8312 57.6979 98.1504 57.9007 98.116 58.1506C98.1044 58.4031 97.7559 58.5493 97.5592 58.3786C97.3691 58.2446 97.3979 57.9372 97.6074 57.834ZM101.023 57.9785C101.122 57.7311 101.527 57.7235 101.64 57.9645C101.753 58.1519 101.615 58.384 101.415 58.4478C101.15 58.4954 100.898 58.2198 101.023 57.9785ZM99.1524 58.4338C99.1501 58.2211 99.3517 58.0626 99.5618 58.0482C99.7011 58.0752 99.8531 58.1323 99.9129 58.2676C100.024 58.4543 99.9254 58.7112 99.7241 58.7969C99.632 58.8465 99.5231 58.828 99.4228 58.8221C99.2693 58.7495 99.1402 58.6075 99.1524 58.4338ZM95.629 58.7437C95.8333 58.6228 96.109 58.8434 96.0316 59.0571C95.9891 59.2418 95.7309 59.3169 95.5834 59.199C95.4258 59.0883 95.4508 58.8228 95.629 58.7437ZM103.195 58.7434C103.368 58.6138 103.654 58.7624 103.634 58.973C103.646 59.1651 103.398 59.3099 103.226 59.2109C103.036 59.1289 103.017 58.8483 103.195 58.7434ZM100.143 59.1257C100.429 59.0269 100.769 59.1451 100.932 59.3906C101.147 59.6906 101.033 60.1473 100.699 60.3195C100.353 60.523 99.8483 60.3505 99.7205 59.9788C99.5752 59.6462 99.7865 59.2299 100.143 59.1257ZM98.4645 59.1584C98.7816 59.0145 99.2084 59.1352 99.3616 59.4473C99.5418 59.751 99.4025 60.1739 99.0803 60.3308C98.7575 60.507 98.3024 60.3734 98.1462 60.0473C97.9711 59.7319 98.1264 59.3036 98.4645 59.1584ZM96.7836 59.7111C96.8077 59.5145 97.0004 59.3866 97.1948 59.3735C97.4044 59.3977 97.5717 59.5542 97.5945 59.7583C97.5807 59.9603 97.4186 60.1576 97.1961 60.1565C96.9513 60.1766 96.7369 59.9425 96.7836 59.7111ZM101.748 59.4162C101.999 59.2756 102.348 59.4804 102.337 59.758C102.354 60.0521 101.968 60.2594 101.718 60.087C101.458 59.9432 101.479 59.5386 101.748 59.4162ZM97.7813 60.4531C98.0751 60.3753 98.4111 60.5087 98.5553 60.7685C98.7131 61.0301 98.6487 61.3934 98.4034 61.5851C98.0889 61.8664 97.509 61.7534 97.3416 61.3695C97.1493 61.0175 97.3829 60.5458 97.7813 60.4531ZM100.965 60.4517C101.251 60.373 101.587 60.479 101.74 60.7293C101.943 61.0157 101.846 61.4428 101.544 61.6273C101.228 61.8416 100.737 61.7292 100.563 61.3939C100.351 61.0473 100.564 60.5573 100.965 60.4517ZM95.8914 60.7783C96.1452 60.686 96.4267 60.9555 96.3237 61.1975C96.261 61.4182 95.9379 61.4996 95.7709 61.3369C95.5755 61.1844 95.6478 60.8446 95.8914 60.7783ZM102.771 61.1296C102.764 60.9273 102.918 60.7482 103.134 60.7368C103.307 60.7633 103.476 60.8982 103.463 61.0804C103.479 61.3208 103.177 61.4843 102.965 61.3713C102.865 61.3226 102.813 61.2241 102.771 61.1296ZM94.6432 60.8971C94.796 60.833 94.9848 60.9604 94.9499 61.1235C94.9416 61.3082 94.6581 61.3792 94.5541 61.2248C94.4622 61.1177 94.5171 60.9524 94.6432 60.8971ZM104.272 60.8935C104.38 60.8198 104.552 60.8729 104.595 60.9936C104.667 61.1257 104.534 61.3064 104.38 61.2841C104.163 61.3032 104.093 60.9853 104.272 60.8935ZM98.6107 61.7802C99.0127 61.6796 99.4445 62.0021 99.4471 62.4001C99.4732 62.8024 99.048 63.159 98.6365 63.0661C98.3186 63.0169 98.0691 62.7222 98.0794 62.4132C98.0784 62.1174 98.3104 61.8427 98.6107 61.7802ZM100.202 61.7793C100.61 61.6697 101.055 61.9978 101.048 62.4049C101.07 62.7997 100.658 63.1445 100.255 63.0661C99.8761 63.019 99.5963 62.6184 99.7022 62.2646C99.7556 62.0289 99.9603 61.8372 100.202 61.7793ZM97.1338 62.0244C97.416 61.978 97.6806 62.2809 97.5661 62.5388C97.4827 62.8135 97.0671 62.8881 96.8833 62.6637C96.6678 62.448 96.8288 62.0542 97.1338 62.0244ZM101.801 62.0364C102.052 61.9351 102.361 62.1444 102.342 62.4073C102.352 62.6965 101.971 62.896 101.725 62.7271C101.446 62.5756 101.497 62.1295 101.801 62.0364ZM103.105 63.2952C103.007 63.1186 103.186 62.8843 103.39 62.917C103.491 62.9154 103.562 62.9923 103.627 63.0568C103.64 63.1615 103.663 63.2864 103.573 63.3671C103.45 63.5166 103.172 63.474 103.105 63.2952ZM95.628 62.9662C95.8187 62.8442 96.0929 63.0262 96.0501 63.2406C96.0273 63.4301 95.7791 63.5385 95.6155 63.431C95.4399 63.3333 95.4465 63.0552 95.628 62.9662ZM99.3937 63.3629C99.6432 63.2569 99.9611 63.4661 99.9376 63.7304C99.956 64.0225 99.5629 64.2248 99.3188 64.0495C99.0478 63.8989 99.093 63.4557 99.3937 63.3629ZM97.6496 63.7544C97.8622 63.6468 98.1474 63.8326 98.1279 64.0615C98.1345 64.2494 97.9438 64.4095 97.751 64.3817C97.5914 64.3785 97.4873 64.2406 97.4361 64.1098C97.4388 63.9672 97.4998 63.8082 97.6496 63.7544ZM101.183 63.7577C101.401 63.6278 101.712 63.8143 101.691 64.059C101.697 64.3147 101.346 64.4785 101.142 64.3105C100.945 64.179 100.969 63.8624 101.183 63.7577ZM101.797 65.219C101.7 65.0774 101.814 64.907 101.972 64.8747C102.099 64.8995 102.233 64.9913 102.206 65.1329C102.188 65.3244 101.897 65.3832 101.797 65.219ZM96.9199 65.0961C96.9586 64.9839 97.0523 64.8724 97.1896 64.9017C97.3896 64.9153 97.449 65.2053 97.274 65.2948C97.1166 65.3968 96.9339 65.2571 96.9199 65.0961ZM99.2728 65.2247C99.3111 65.0589 99.5343 64.978 99.6815 65.0662C99.7788 65.1063 99.8072 65.2111 99.832 65.3C99.8188 65.3463 99.8068 65.3927 99.7951 65.4391C99.7347 65.5077 99.6574 65.5765 99.5571 65.574C99.3709 65.5948 99.2028 65.3923 99.2728 65.2247Z" fill="#EFEAFF" fill-opacity="0.2"/>
<path d="M106.293 25.1517C108.774 25.1517 110.785 23.1406 110.785 20.6598C110.785 18.179 108.774 16.168 106.293 16.168C103.812 16.168 101.801 18.179 101.801 20.6598C101.801 23.1406 103.812 25.1517 106.293 25.1517Z" fill="#8A4BFF"/>
<path d="M106.21 17.6798C106.357 17.6062 106.537 17.7771 106.459 17.9182C106.413 18.0332 106.241 18.0639 106.154 17.9762C106.061 17.892 106.091 17.7256 106.21 17.6798ZM104.631 17.8436C104.72 17.8082 104.833 17.8868 104.824 17.9804C104.834 18.0819 104.705 18.1567 104.613 18.1084C104.493 18.0636 104.507 17.8754 104.631 17.8436ZM107.866 18.1113C107.727 18.0951 107.705 17.8842 107.839 17.8418C107.943 17.7929 108.038 17.8845 108.054 17.9794C108.032 18.0605 107.961 18.1348 107.866 18.1113ZM104.99 18.4903C105.14 18.3995 105.352 18.5347 105.329 18.7013C105.322 18.8696 105.089 18.9671 104.958 18.8533C104.832 18.764 104.851 18.559 104.99 18.4903ZM107.267 18.5866C107.334 18.4216 107.603 18.4166 107.679 18.5772C107.754 18.7022 107.662 18.8569 107.528 18.8994C107.352 18.9312 107.184 18.7474 107.267 18.5866ZM106.02 18.8901C106.019 18.7483 106.153 18.6426 106.293 18.6331C106.386 18.651 106.488 18.6891 106.527 18.7793C106.602 18.9038 106.536 19.075 106.402 19.1322C106.34 19.1652 106.268 19.1529 106.201 19.149C106.098 19.1006 106.012 19.0059 106.02 18.8901ZM103.671 19.0967C103.808 19.0161 103.991 19.1632 103.94 19.3056C103.911 19.4288 103.739 19.4788 103.641 19.4003C103.536 19.3265 103.553 19.1494 103.671 19.0967ZM108.715 19.0965C108.831 19.0101 109.022 19.1092 109.008 19.2496C109.016 19.3776 108.851 19.4742 108.736 19.4082C108.61 19.3535 108.597 19.1664 108.715 19.0965ZM106.681 19.3514C106.872 19.2855 107.098 19.3643 107.207 19.5279C107.35 19.728 107.274 20.0325 107.052 20.1472C106.821 20.2829 106.484 20.1679 106.399 19.9201C106.302 19.6984 106.443 19.4209 106.681 19.3514ZM105.562 19.3732C105.773 19.2772 106.058 19.3577 106.16 19.5658C106.28 19.7682 106.187 20.0502 105.972 20.1548C105.757 20.2723 105.454 20.1832 105.35 19.9657C105.233 19.7555 105.336 19.47 105.562 19.3732ZM104.441 19.7416C104.457 19.6106 104.586 19.5253 104.715 19.5166C104.855 19.5327 104.967 19.6371 104.982 19.7731C104.973 19.9078 104.865 20.0393 104.716 20.0386C104.553 20.052 104.41 19.8959 104.441 19.7416ZM107.751 19.5451C107.918 19.4513 108.151 19.5878 108.144 19.7729C108.155 19.969 107.898 20.1072 107.731 19.9922C107.558 19.8964 107.571 19.6266 107.751 19.5451ZM105.106 20.2363C105.302 20.1845 105.526 20.2733 105.622 20.4466C105.728 20.621 105.685 20.8632 105.521 20.991C105.311 21.1785 104.925 21.1032 104.813 20.8472C104.685 20.6126 104.841 20.2981 105.106 20.2363ZM107.229 20.2354C107.419 20.1829 107.643 20.2536 107.746 20.4204C107.881 20.6114 107.816 20.8961 107.615 21.0191C107.404 21.162 107.077 21.087 106.961 20.8635C106.82 20.6325 106.961 20.3058 107.229 20.2354ZM103.846 20.4531C104.016 20.3916 104.203 20.5712 104.135 20.7326C104.093 20.8797 103.877 20.9339 103.766 20.8255C103.636 20.7238 103.684 20.4973 103.846 20.4531ZM108.433 20.6873C108.428 20.5524 108.531 20.433 108.674 20.4255C108.79 20.4431 108.903 20.533 108.894 20.6545C108.904 20.8148 108.704 20.9238 108.562 20.8484C108.495 20.816 108.461 20.7503 108.433 20.6873ZM103.014 20.5323C103.116 20.4896 103.242 20.5745 103.219 20.6832C103.213 20.8064 103.024 20.8537 102.955 20.7508C102.894 20.6794 102.93 20.5692 103.014 20.5323ZM109.433 20.5299C109.505 20.4808 109.62 20.5161 109.649 20.5966C109.697 20.6847 109.608 20.8052 109.505 20.7903C109.361 20.803 109.314 20.5911 109.433 20.5299ZM105.659 21.121C105.927 21.054 106.215 21.269 106.217 21.5343C106.234 21.8025 105.951 22.0403 105.676 21.9783C105.465 21.9455 105.298 21.7491 105.305 21.543C105.304 21.3459 105.459 21.1627 105.659 21.121ZM106.72 21.1204C106.992 21.0474 107.289 21.2661 107.284 21.5375C107.299 21.8007 107.024 22.0305 106.755 21.9783C106.503 21.9469 106.316 21.6798 106.387 21.444C106.423 21.2868 106.559 21.159 106.72 21.1204ZM104.675 21.2838C104.863 21.2529 105.039 21.4549 104.963 21.6268C104.907 21.8099 104.63 21.8596 104.508 21.71C104.364 21.5663 104.471 21.3037 104.675 21.2838ZM107.786 21.2919C107.954 21.2243 108.16 21.3638 108.147 21.5391C108.154 21.7319 107.899 21.8649 107.735 21.7523C107.549 21.6513 107.583 21.3539 107.786 21.2919ZM108.656 22.131C108.59 22.0133 108.709 21.8571 108.845 21.8789C108.913 21.8778 108.96 21.9291 109.004 21.9721C109.012 22.0419 109.027 22.1252 108.967 22.179C108.885 22.2786 108.7 22.2502 108.656 22.131ZM103.671 21.9117C103.798 21.8304 103.981 21.9517 103.952 22.0946C103.937 22.221 103.772 22.2932 103.662 22.2216C103.545 22.1564 103.55 21.971 103.671 21.9117ZM106.181 22.1762C106.348 22.1055 106.56 22.245 106.544 22.4212C106.556 22.6159 106.294 22.7508 106.131 22.6339C105.951 22.5335 105.981 22.238 106.181 22.1762ZM105.019 22.4372C105.16 22.3655 105.35 22.4893 105.337 22.6419C105.342 22.7672 105.215 22.8739 105.086 22.8554C104.98 22.8532 104.91 22.7613 104.876 22.6741C104.878 22.579 104.919 22.473 105.019 22.4372ZM107.374 22.4394C107.52 22.3528 107.727 22.4771 107.713 22.6402C107.717 22.8107 107.483 22.9199 107.347 22.8079C107.216 22.7203 107.232 22.5092 107.374 22.4394ZM107.783 23.4136C107.718 23.3192 107.795 23.2056 107.9 23.184C107.985 23.2006 108.074 23.2618 108.056 23.3562C108.044 23.4839 107.85 23.523 107.783 23.4136ZM104.532 23.3316C104.558 23.2569 104.62 23.1825 104.712 23.202C104.845 23.2111 104.885 23.4044 104.768 23.4641C104.663 23.5321 104.541 23.4389 104.532 23.3316ZM106.101 23.4174C106.126 23.3068 106.275 23.2529 106.373 23.3117C106.438 23.3384 106.457 23.4083 106.473 23.4676C106.465 23.4985 106.457 23.5294 106.449 23.5603C106.409 23.606 106.357 23.6519 106.29 23.6502C106.166 23.6641 106.054 23.5291 106.101 23.4174Z" fill="#EFEAFF" fill-opacity="0.2"/>
<path d="M122.013 56.5972C126.975 56.5972 130.997 52.5751 130.997 47.6136C130.997 42.652 126.975 38.6299 122.013 38.6299C117.052 38.6299 113.03 42.652 113.03 47.6136C113.03 52.5751 117.052 56.5972 122.013 56.5972Z" fill="#8A4BFF"/>
<path d="M121.85 41.6614C122.144 41.5141 122.502 41.8559 122.346 42.1382C122.256 42.3681 121.912 42.4295 121.736 42.2541C121.551 42.0857 121.611 41.7529 121.85 41.6614ZM118.691 41.9889C118.87 41.9182 119.095 42.0754 119.077 42.2625C119.096 42.4656 118.838 42.6151 118.656 42.5186C118.415 42.429 118.443 42.0526 118.691 41.9889ZM125.161 42.5243C124.882 42.492 124.838 42.0701 125.107 41.9853C125.315 41.8876 125.506 42.0708 125.536 42.2606C125.493 42.4228 125.352 42.5713 125.161 42.5243ZM119.41 43.2823C119.708 43.1007 120.134 43.3712 120.088 43.7044C120.073 44.041 119.608 44.236 119.346 44.0084C119.092 43.8297 119.131 43.4198 119.41 43.2823ZM123.963 43.4749C124.096 43.145 124.636 43.135 124.787 43.4562C124.937 43.7061 124.753 44.0156 124.486 44.1007C124.133 44.1641 123.797 43.7967 123.963 43.4749ZM121.47 44.082C121.467 43.7983 121.736 43.587 122.016 43.5679C122.202 43.6038 122.404 43.68 122.484 43.8604C122.633 44.1093 122.501 44.4519 122.232 44.5661C122.109 44.6322 121.964 44.6076 121.831 44.5997C121.626 44.5029 121.454 44.3136 121.47 44.082ZM116.772 44.4952C117.044 44.334 117.412 44.6282 117.309 44.913C117.252 45.1593 116.908 45.2594 116.711 45.1023C116.501 44.9547 116.534 44.6006 116.772 44.4952ZM126.86 44.4947C127.091 44.322 127.473 44.5201 127.445 44.8009C127.461 45.057 127.131 45.2501 126.901 45.1181C126.649 45.0088 126.623 44.6346 126.86 44.4947ZM122.791 45.0045C123.173 44.8728 123.626 45.0304 123.843 45.3576C124.13 45.7577 123.977 46.3667 123.532 46.5962C123.071 46.8676 122.398 46.6376 122.227 46.142C122.034 45.6985 122.315 45.1435 122.791 45.0045ZM120.553 45.0481C120.976 44.8562 121.545 45.0172 121.749 45.4334C121.989 45.8382 121.803 46.4021 121.374 46.6113C120.943 46.8463 120.337 46.6681 120.128 46.2333C119.895 45.8128 120.102 45.2417 120.553 45.0481ZM118.312 45.785C118.344 45.5229 118.601 45.3524 118.86 45.3349C119.139 45.3672 119.362 45.5759 119.393 45.848C119.374 46.1173 119.158 46.3803 118.862 46.3789C118.535 46.4057 118.249 46.0936 118.312 45.785ZM124.931 45.3919C125.266 45.2043 125.731 45.4774 125.716 45.8476C125.739 46.2397 125.225 46.5162 124.891 46.2862C124.544 46.0945 124.572 45.555 124.931 45.3919ZM119.642 46.7744C120.034 46.6707 120.482 46.8485 120.674 47.1949C120.884 47.5437 120.798 48.0281 120.471 48.2837C120.052 48.6588 119.279 48.5082 119.056 47.9962C118.799 47.5269 119.111 46.898 119.642 46.7744ZM123.887 46.7725C124.268 46.6676 124.715 46.8089 124.92 47.1426C125.191 47.5245 125.062 48.0939 124.659 48.34C124.237 48.6258 123.583 48.4758 123.351 48.0288C123.069 47.5667 123.352 46.9134 123.887 46.7725ZM117.122 47.208C117.46 47.0849 117.836 47.4442 117.698 47.7669C117.615 48.0611 117.184 48.1696 116.961 47.9528C116.701 47.7495 116.797 47.2964 117.122 47.208ZM126.295 47.6764C126.286 47.4066 126.491 47.1678 126.778 47.1527C127.01 47.1879 127.235 47.3678 127.217 47.6107C127.238 47.9313 126.837 48.1493 126.553 47.9986C126.42 47.9337 126.351 47.8024 126.295 47.6764ZM115.458 47.3664C115.661 47.2809 115.913 47.4507 115.867 47.6682C115.856 47.9145 115.478 48.0091 115.339 47.8034C115.216 47.6606 115.29 47.4402 115.458 47.3664ZM128.296 47.3616C128.439 47.2634 128.669 47.3341 128.726 47.495C128.823 47.6711 128.646 47.9121 128.44 47.8824C128.151 47.9078 128.057 47.484 128.296 47.3616ZM120.748 48.5438C121.284 48.4097 121.859 48.8397 121.863 49.3703C121.898 49.9067 121.331 50.3823 120.782 50.2584C120.358 50.1928 120.026 49.7999 120.039 49.3878C120.038 48.9935 120.347 48.6272 120.748 48.5438ZM122.87 48.5427C123.414 48.3965 124.007 48.834 123.998 49.3768C124.027 49.9031 123.477 50.3629 122.94 50.2584C122.435 50.1956 122.062 49.6614 122.203 49.1897C122.274 48.8754 122.547 48.6198 122.87 48.5427ZM118.778 48.8694C119.155 48.8076 119.508 49.2115 119.355 49.5553C119.244 49.9216 118.69 50.021 118.445 49.7218C118.157 49.4343 118.372 48.9092 118.778 48.8694ZM125.001 48.8855C125.337 48.7504 125.748 49.0294 125.723 49.3799C125.736 49.7656 125.228 50.0315 124.9 49.8063C124.528 49.6044 124.596 49.0096 125.001 48.8855ZM126.74 50.5639C126.609 50.3284 126.848 50.016 127.12 50.0596C127.255 50.0574 127.35 50.1599 127.436 50.2459C127.454 50.3856 127.484 50.5521 127.364 50.6597C127.2 50.859 126.829 50.8022 126.74 50.5639ZM116.771 50.1252C117.025 49.9625 117.391 50.2052 117.334 50.491C117.303 50.7438 116.972 50.8882 116.754 50.745C116.52 50.6146 116.529 50.2438 116.771 50.1252ZM121.792 50.6542C122.124 50.5128 122.548 50.7917 122.517 51.1441C122.541 51.5336 122.017 51.8034 121.692 51.5695C121.33 51.3688 121.391 50.7778 121.792 50.6542ZM119.466 51.1762C119.75 51.0327 120.13 51.2804 120.104 51.5856C120.113 51.8362 119.858 52.0496 119.601 52.0125C119.389 52.0082 119.25 51.8244 119.182 51.65C119.185 51.4598 119.267 51.2478 119.466 51.1762ZM124.177 51.1805C124.468 51.0073 124.882 51.256 124.855 51.5822C124.862 51.9231 124.394 52.1416 124.123 51.9176C123.86 51.7423 123.892 51.3202 124.177 51.1805ZM124.996 53.1289C124.866 52.9401 125.019 52.713 125.229 52.6699C125.399 52.7029 125.578 52.8253 125.542 53.0141C125.517 53.2695 125.129 53.3478 124.996 53.1289ZM118.493 52.965C118.545 52.8155 118.67 52.6667 118.853 52.7058C119.12 52.724 119.199 53.1107 118.965 53.23C118.756 53.366 118.512 53.1796 118.493 52.965ZM121.631 53.1365C121.682 52.9154 121.979 52.8076 122.175 52.9252C122.305 52.9787 122.343 53.1183 122.376 53.2369C122.358 53.2987 122.343 53.3605 122.327 53.4223C122.246 53.5138 122.143 53.6056 122.01 53.6022C121.761 53.63 121.537 53.36 121.631 53.1365Z" fill="#EFEAFF" fill-opacity="0.2"/>
<path d="M115.276 85.7874C117.756 85.7874 119.767 83.7763 119.767 81.2956C119.767 78.8148 117.756 76.8037 115.276 76.8037C112.795 76.8037 110.784 78.8148 110.784 81.2956C110.784 83.7763 112.795 85.7874 115.276 85.7874Z" fill="#8A4BFF"/>
<path d="M115.193 78.3156C115.34 78.2419 115.519 78.4128 115.441 78.5539C115.396 78.6689 115.224 78.6996 115.136 78.6119C115.043 78.5277 115.074 78.3613 115.193 78.3156ZM113.613 78.4793C113.703 78.444 113.816 78.5226 113.806 78.6161C113.816 78.7177 113.687 78.7924 113.596 78.7442C113.476 78.6994 113.489 78.5112 113.613 78.4793ZM116.848 78.747C116.709 78.7309 116.687 78.5199 116.821 78.4775C116.925 78.4286 117.021 78.5203 117.036 78.6151C117.014 78.6962 116.944 78.7705 116.848 78.747ZM113.973 79.126C114.122 79.0352 114.335 79.1705 114.312 79.3371C114.304 79.5054 114.072 79.6029 113.941 79.4891C113.814 79.3997 113.833 79.1948 113.973 79.126ZM116.25 79.2223C116.316 79.0574 116.586 79.0524 116.661 79.213C116.736 79.3379 116.644 79.4927 116.511 79.5352C116.334 79.5669 116.166 79.3832 116.25 79.2223ZM115.003 79.5258C115.001 79.384 115.136 79.2784 115.276 79.2688C115.369 79.2868 115.47 79.3249 115.51 79.4151C115.584 79.5395 115.518 79.7108 115.384 79.7679C115.323 79.801 115.25 79.7887 115.183 79.7847C115.081 79.7363 114.995 79.6417 115.003 79.5258ZM112.654 79.7325C112.79 79.6519 112.974 79.799 112.922 79.9414C112.894 80.0645 112.722 80.1146 112.623 80.036C112.518 79.9622 112.535 79.7852 112.654 79.7325ZM117.698 79.7322C117.813 79.6459 118.004 79.7449 117.99 79.8853C117.998 80.0134 117.833 80.1099 117.719 80.0439C117.592 79.9893 117.579 79.8022 117.698 79.7322ZM115.663 79.9871C115.854 79.9212 116.081 80.0001 116.189 80.1637C116.333 80.3637 116.257 80.6682 116.034 80.783C115.803 80.9187 115.467 80.8037 115.382 80.5559C115.285 80.3341 115.426 80.0566 115.663 79.9871ZM114.544 80.0089C114.756 79.913 115.04 79.9935 115.142 80.2015C115.262 80.404 115.17 80.6859 114.955 80.7905C114.74 80.908 114.436 80.8189 114.332 80.6015C114.215 80.3913 114.319 80.1057 114.544 80.0089ZM113.424 80.3774C113.44 80.2463 113.568 80.1611 113.698 80.1523C113.837 80.1685 113.949 80.2728 113.964 80.4089C113.955 80.5435 113.847 80.675 113.699 80.6743C113.535 80.6877 113.392 80.5317 113.424 80.3774ZM116.733 80.1808C116.901 80.087 117.133 80.2236 117.126 80.4086C117.137 80.6047 116.88 80.743 116.713 80.628C116.54 80.5321 116.554 80.2624 116.733 80.1808ZM114.089 80.8721C114.285 80.8202 114.509 80.9091 114.605 81.0823C114.71 81.2567 114.667 81.4989 114.503 81.6267C114.294 81.8143 113.907 81.7389 113.796 81.483C113.667 81.2483 113.823 80.9339 114.089 80.8721ZM116.211 80.8711C116.402 80.8187 116.626 80.8893 116.728 81.0562C116.863 81.2471 116.799 81.5318 116.597 81.6549C116.386 81.7978 116.059 81.7228 115.943 81.4993C115.802 81.2682 115.944 80.9416 116.211 80.8711ZM112.829 81.0889C112.998 81.0273 113.186 81.207 113.117 81.3683C113.075 81.5154 112.86 81.5697 112.748 81.4613C112.618 81.3596 112.666 81.1331 112.829 81.0889ZM117.415 81.3231C117.411 81.1882 117.513 81.0688 117.657 81.0612C117.773 81.0788 117.886 81.1688 117.876 81.2902C117.887 81.4505 117.686 81.5595 117.544 81.4842C117.478 81.4517 117.444 81.3861 117.415 81.3231ZM111.997 81.1681C112.099 81.1253 112.224 81.2102 112.201 81.319C112.196 81.4421 112.007 81.4894 111.937 81.3865C111.876 81.3152 111.913 81.205 111.997 81.1681ZM118.416 81.1657C118.488 81.1166 118.602 81.1519 118.631 81.2324C118.679 81.3204 118.591 81.4409 118.488 81.4261C118.343 81.4388 118.297 81.2269 118.416 81.1657ZM114.642 81.7568C114.91 81.6897 115.198 81.9047 115.199 82.17C115.217 82.4382 114.933 82.676 114.659 82.6141C114.447 82.5812 114.281 82.3848 114.287 82.1788C114.287 81.9816 114.441 81.7985 114.642 81.7568ZM115.703 81.7562C115.975 81.6831 116.271 81.9018 116.267 82.1733C116.281 82.4364 116.006 82.6663 115.738 82.6141C115.485 82.5827 115.299 82.3156 115.369 82.0797C115.405 81.9226 115.541 81.7948 115.703 81.7562ZM113.657 81.9196C113.845 81.8887 114.022 82.0906 113.945 82.2625C113.89 82.4457 113.613 82.4954 113.49 82.3458C113.346 82.202 113.454 81.9395 113.657 81.9196ZM116.768 81.9276C116.936 81.86 117.142 81.9996 117.129 82.1748C117.136 82.3677 116.882 82.5006 116.718 82.388C116.532 82.2871 116.566 81.9896 116.768 81.9276ZM117.638 82.7668C117.572 82.649 117.692 82.4928 117.828 82.5146C117.895 82.5136 117.943 82.5648 117.986 82.6078C117.995 82.6777 118.01 82.7609 117.95 82.8147C117.868 82.9144 117.682 82.886 117.638 82.7668ZM112.653 82.5475C112.78 82.4661 112.963 82.5875 112.935 82.7304C112.919 82.8567 112.754 82.929 112.645 82.8573C112.528 82.7922 112.532 82.6068 112.653 82.5475ZM115.164 82.8119C115.33 82.7413 115.542 82.8807 115.526 83.0569C115.539 83.2517 115.276 83.3865 115.114 83.2696C114.933 83.1693 114.963 82.8738 115.164 82.8119ZM114.001 83.073C114.143 83.0012 114.333 83.1251 114.32 83.2777C114.324 83.403 114.197 83.5097 114.069 83.4911C113.962 83.489 113.893 83.3971 113.859 83.3099C113.86 83.2148 113.901 83.1088 114.001 83.073ZM116.356 83.0751C116.502 82.9885 116.709 83.1128 116.695 83.276C116.699 83.4464 116.465 83.5557 116.329 83.4437C116.198 83.356 116.214 83.1449 116.356 83.0751ZM116.766 84.0493C116.701 83.9549 116.777 83.8414 116.883 83.8198C116.967 83.8363 117.057 83.8975 117.039 83.9919C117.027 84.1196 116.832 84.1588 116.766 84.0493ZM113.514 83.9674C113.54 83.8926 113.603 83.8182 113.694 83.8378C113.828 83.8469 113.867 84.0402 113.751 84.0998C113.646 84.1679 113.524 84.0747 113.514 83.9674ZM115.083 84.0531C115.109 83.9426 115.257 83.8887 115.356 83.9475C115.42 83.9742 115.439 84.044 115.456 84.1033C115.447 84.1342 115.439 84.1651 115.431 84.196C115.391 84.2418 115.339 84.2877 115.273 84.286C115.148 84.2999 115.036 84.1649 115.083 84.0531Z" fill="#EFEAFF" fill-opacity="0.2"/>
</svg>
